<svg width="33" height="33" viewBox="0 0 33 33" fill="none" xmlns="http://www.w3.org/2000/svg">
<path d="M15.18 23.76C10.428 23.76 6.60001 19.932 6.60001 15.18C6.60001 10.428 10.428 6.60001 15.18 6.60001C19.932 6.60001 23.76 10.428 23.76 15.18C23.76 19.932 19.932 23.76 15.18 23.76ZM15.18 7.92001C11.154 7.92001 7.92001 11.154 7.92001 15.18C7.92001 19.206 11.154 22.44 15.18 22.44C19.206 22.44 22.44 19.206 22.44 15.18C22.44 11.154 19.206 7.92001 15.18 7.92001Z" fill="black"/>
<path d="M21.5701 20.6362L27.4969 26.563L26.5636 27.4963L20.6368 21.5695L21.5701 20.6362Z" fill="black"/>
</svg>
