<svg width="1439" height="502" viewBox="0 0 1439 502" fill="none" xmlns="http://www.w3.org/2000/svg">
<path d="M1439 359.6L1359.06 341.8C1279.11 324 1119.22 288.4 959.333 312.096C799.444 336.237 639.556 418.562 479.667 454.496C319.778 489.762 159.889 478.637 79.9445 472.296L1.33514e-05 466.4V502H79.9445C159.889 502 319.778 502 479.667 502C639.556 502 799.444 502 959.333 502C1119.22 502 1279.11 502 1359.06 502H1439V359.6Z" fill="#F5B539"/>
<path d="M1196 155.89H1002.22V162.936H1196V155.89Z" fill="#E6E6E6"/>
<path d="M1067.33 96.9653H1018.24V157.812H1067.33V96.9653Z" fill="#E6E6E6"/>
<path d="M1057.52 109.135H1028.06V145.642H1057.52V109.135Z" fill="#CCCCCC"/>
<path d="M1140.71 96.9653H1128.31V157.812H1140.71V96.9653Z" fill="#E6E6E6"/>
<path d="M1140.71 106.573H1128.31V113.618H1140.71V106.573Z" fill="#CCCCCC"/>
<path d="M1140.71 137.316H1128.31V144.362H1140.71V137.316Z" fill="#CCCCCC"/>
<path d="M1121.59 96.9653H1109.19V157.812H1121.59V96.9653Z" fill="#E6E6E6"/>
<path d="M1121.59 106.573H1109.19V113.618H1121.59V106.573Z" fill="#CCCCCC"/>
<path d="M1121.59 137.316H1109.19V144.362H1121.59V137.316Z" fill="#CCCCCC"/>
<path d="M1151.39 96.7138L1140.28 103.534L1162.06 158.063L1173.18 151.243L1151.39 96.7138Z" fill="#E6E6E6"/>
<path d="M1154.83 105.324L1143.72 112.144L1146.24 118.458L1157.36 111.638L1154.83 105.324Z" fill="#CCCCCC"/>
<path d="M1165.84 132.875L1154.72 139.696L1157.25 146.01L1168.36 139.189L1165.84 132.875Z" fill="#CCCCCC"/>
<path d="M1036.59 121.389L1042.83 134.797L1049.08 148.204H1036.59H1024.1L1030.34 134.797L1036.59 121.389Z" fill="#E6E6E6"/>
<path d="M1047.44 123.951L1053.68 137.359L1059.93 150.766H1047.44H1034.95L1041.19 137.359L1047.44 123.951Z" fill="#E6E6E6"/>
<path d="M1051.83 120.023C1053.83 120.023 1055.45 118.016 1055.45 115.54C1055.45 113.063 1053.83 111.056 1051.83 111.056C1049.83 111.056 1048.21 113.063 1048.21 115.54C1048.21 118.016 1049.83 120.023 1051.83 120.023Z" fill="#E6E6E6"/>
<path d="M1002.22 66.2219L1196 66.2219V59.1765L1002.22 59.1765V66.2219Z" fill="#E6E6E6"/>
<path d="M1130.89 61.098L1179.98 61.098V0.251587L1130.89 0.251587V61.098Z" fill="#E6E6E6"/>
<path d="M1140.71 48.9287L1170.16 48.9287V12.4209L1140.71 12.4209V48.9287Z" fill="#CCCCCC"/>
<path d="M1057.52 61.098H1069.92V0.251587H1057.52V61.098Z" fill="#E6E6E6"/>
<path d="M1057.52 16.9043L1069.92 16.9043V9.85896L1057.52 9.85896V16.9043Z" fill="#CCCCCC"/>
<path d="M1057.52 47.6478H1069.92V40.6024H1057.52V47.6478Z" fill="#CCCCCC"/>
<path d="M1076.63 61.098H1089.04V0.251587H1076.63V61.098Z" fill="#E6E6E6"/>
<path d="M1076.63 16.9043L1089.04 16.9043V9.85896L1076.63 9.85896V16.9043Z" fill="#CCCCCC"/>
<path d="M1076.63 47.6478H1089.04V40.6024H1076.63V47.6478Z" fill="#CCCCCC"/>
<path d="M1025.05 54.5293L1036.16 61.3496L1057.94 6.8203L1046.83 2.27565e-05L1025.05 54.5293Z" fill="#E6E6E6"/>
<path d="M1040.87 14.9238L1051.98 21.7441L1054.5 15.4302L1043.39 8.60992L1040.87 14.9238Z" fill="#CCCCCC"/>
<path d="M1029.86 42.4755L1040.98 49.2957L1043.5 42.9818L1032.39 36.1615L1029.86 42.4755Z" fill="#CCCCCC"/>
<path d="M1161.64 24.6751L1155.39 38.0827L1149.15 51.4904H1161.64H1174.13L1167.88 38.0827L1161.64 24.6751Z" fill="#E6E6E6"/>
<path d="M1150.79 27.237L1144.54 40.6447L1138.3 54.0523H1150.79H1163.28L1157.03 40.6447L1150.79 27.237Z" fill="#E6E6E6"/>
<path d="M1146.39 23.3092C1148.39 23.3092 1150.01 21.3019 1150.01 18.8258C1150.01 16.3496 1148.39 14.3423 1146.39 14.3423C1144.4 14.3423 1142.78 16.3496 1142.78 18.8258C1142.78 21.3019 1144.4 23.3092 1146.39 23.3092Z" fill="#E6E6E6"/>
<path d="M1002.22 259.649L1196 259.649V252.604L1002.22 252.604V259.649Z" fill="#E6E6E6"/>
<path d="M1130.89 254.525H1179.98V193.679H1130.89V254.525Z" fill="#E6E6E6"/>
<path d="M1140.71 242.356H1170.16V205.848H1140.71V242.356Z" fill="#CCCCCC"/>
<path d="M1057.52 254.525H1069.92V193.679H1057.52V254.525Z" fill="#E6E6E6"/>
<path d="M1057.52 210.332H1069.92V203.286H1057.52V210.332Z" fill="#CCCCCC"/>
<path d="M1057.52 241.075H1069.92V234.03H1057.52V241.075Z" fill="#CCCCCC"/>
<path d="M1076.63 254.525H1089.04V193.679H1076.63V254.525Z" fill="#E6E6E6"/>
<path d="M1076.63 210.332H1089.04V203.286H1076.63V210.332Z" fill="#CCCCCC"/>
<path d="M1076.63 241.075H1089.04V234.03H1076.63V241.075Z" fill="#CCCCCC"/>
<path d="M1025.05 247.957L1036.16 254.777L1057.94 200.248L1046.83 193.428L1025.05 247.957Z" fill="#E6E6E6"/>
<path d="M1040.87 208.351L1051.98 215.172L1054.5 208.858L1043.39 202.037L1040.87 208.351Z" fill="#CCCCCC"/>
<path d="M1029.86 235.903L1040.98 242.723L1043.5 236.409L1032.39 229.589L1029.86 235.903Z" fill="#CCCCCC"/>
<path d="M1161.64 218.102L1155.39 231.51L1149.15 244.918H1161.64H1174.13L1167.88 231.51L1161.64 218.102Z" fill="#E6E6E6"/>
<path d="M1150.79 220.664L1144.54 234.072L1138.3 247.48H1150.79H1163.28L1157.03 234.072L1150.79 220.664Z" fill="#E6E6E6"/>
<path d="M1146.39 216.737C1148.39 216.737 1150.01 214.729 1150.01 212.253C1150.01 209.777 1148.39 207.77 1146.39 207.77C1144.4 207.77 1142.78 209.777 1142.78 212.253C1142.78 214.729 1144.4 216.737 1146.39 216.737Z" fill="#E6E6E6"/>
<path d="M963.267 421C1089.34 421 1191.53 412.003 1191.53 400.905C1191.53 389.807 1089.34 380.81 963.267 380.81C837.199 380.81 735 389.807 735 400.905C735 412.003 837.199 421 963.267 421Z" fill="#E6E6E6"/>
<path d="M1141.6 412.158C1104.38 403.947 1063.68 405.312 1020.98 412.158C1040.44 391.796 1057.24 371.433 1037.78 351.07C1075.74 360.776 1081.05 359.794 1123.28 351.07C1113.49 371.433 1131.81 391.796 1141.6 412.158Z" fill="#6C63FF"/>
<path opacity="0.2" d="M1141.6 412.158C1104.38 403.947 1063.68 405.312 1020.98 412.158C1040.44 391.796 1057.24 371.433 1037.78 351.07C1075.74 360.776 1081.05 359.794 1123.28 351.07C1113.49 371.433 1131.81 391.796 1141.6 412.158Z" fill="#DAF91B" fill-opacity="0.71"/>
<path d="M1132.52 403.471C1100.9 396.917 1066.33 398.006 1030.06 403.471C1046.59 387.217 1060.86 370.963 1044.33 354.709C1076.57 362.457 1081.09 361.673 1116.96 354.709C1108.64 370.963 1124.2 387.217 1132.52 403.471Z" fill="#F5B539" fill-opacity="0.93"/>
<path d="M1120.48 377.282C1129.78 377.282 1137.33 367.933 1137.33 356.4C1137.33 344.868 1129.78 335.519 1120.48 335.519C1111.18 335.519 1103.63 344.868 1103.63 356.4C1103.63 367.933 1111.18 377.282 1120.48 377.282Z" fill="#2F2E41"/>
<path d="M1044 332.18L1055.68 334.592L1061.51 355.49L1044.65 368.352L1025.2 332.18H1043.36H1044Z" fill="#A0616A"/>
<path d="M1077.08 364.332C1092.12 364.332 1104.31 349.218 1104.31 330.573C1104.31 311.928 1092.12 296.814 1077.08 296.814C1062.03 296.814 1049.84 311.928 1049.84 330.573C1049.84 349.218 1062.03 364.332 1077.08 364.332Z" fill="#A0616A"/>
<path d="M926.628 207.592C926.628 207.592 860.482 216.434 848.81 214.826C837.137 213.219 831.949 211.611 831.949 211.611C831.949 211.611 824.167 224.472 828.058 230.099C830.237 233.341 832.874 236.065 835.84 238.137C835.84 238.137 842.973 235.725 848.161 238.137C853.349 240.548 905.876 250.997 914.955 241.352C924.034 231.706 926.628 207.592 926.628 207.592Z" fill="#2F2E41"/>
<path d="M931.167 386.839C931.167 386.839 887.719 371.566 879.937 304.048V297.617C879.937 297.617 871.34 316.311 868.264 320.124C864.697 324.544 852.052 364.332 852.7 368.351C853.349 372.37 852.7 373.978 852.7 373.978L833.894 371.566V364.332C833.894 364.332 843.946 326.956 844.594 318.114C845.243 309.272 869.561 247.782 869.561 247.782C869.561 247.782 878.64 224.472 894.204 247.782C909.767 271.092 911.064 287.168 911.064 287.168L931.167 335.396L931.167 386.839Z" fill="#2F2E41"/>
<path d="M833.894 209.2L813.143 200.358C813.143 200.358 793.688 182.675 798.227 200.358C802.767 218.042 823.518 256.624 829.355 252.605C835.191 248.586 842.21 238.61 840.646 237.168C839.082 235.725 828.706 225.276 833.894 209.2Z" fill="#2F2E41"/>
<path d="M836.403 359.587L819.651 369.727C819.651 369.727 799.393 373.59 810.691 380.833C821.988 388.076 853.154 395.802 854.712 389.042C856.271 382.282 855.653 371.063 854.014 371.361C852.375 371.659 841.077 373.107 836.403 359.587Z" fill="#2F2E41"/>
<path d="M922.737 333.788C922.737 333.788 914.307 378.801 928.573 388.446C942.84 398.092 1042.71 399.699 1050.49 382.016C1058.27 364.332 1054.38 364.332 1054.38 364.332L1033.63 335.396L1050.49 333.788C1050.49 333.788 1050.49 327.358 1044.65 326.554C1038.82 325.75 1020.66 317.712 1005.09 323.339C989.531 328.965 980.452 312.086 980.452 312.086L922.737 333.788Z" fill="#575A89"/>
<path d="M911.713 193.124L900.688 267.877L976.562 256.624L990.18 189.105L911.713 193.124Z" fill="#3F3D56"/>
<path d="M913.983 195.937L904.904 262.652L973.967 252.605L987.261 191.918L913.983 195.937Z" fill="white"/>
<path d="M903.282 268.681L900.688 267.877L899.392 271.092L920.143 342.63L922.095 341.705L922.737 337.004L903.282 268.681Z" fill="#B3B3B3"/>
<path d="M900.688 267.073L921.44 341.826L999.907 327.358L976.562 256.624L900.688 267.073Z" fill="#D0CDE1"/>
<path d="M911.064 264.662V268.681L968.779 260.643L968.131 256.624L911.064 264.662Z" fill="#3F3D56"/>
<path d="M912.361 272.7L921.44 304.048L980.452 295.206L970.077 265.466L912.361 272.7Z" fill="#3F3D56"/>
<path d="M986.289 316.908L984.343 310.478C984.343 310.478 969.428 278.326 961.646 284.757C953.864 291.187 977.858 322.535 977.858 322.535H985.64L986.289 316.908Z" fill="#A0616A"/>
<path d="M937.004 321.731L935.058 312.086C935.058 312.086 929.87 282.345 938.949 283.953C948.028 285.56 950.622 313.693 950.622 313.693L949.973 320.124L937.004 321.731Z" fill="#A0616A"/>
<path d="M952.567 317.712C952.567 317.712 935.707 314.497 935.058 319.32C934.41 324.143 931.167 396.484 947.379 398.896C963.592 401.307 1044 411.756 1035.57 386.839C1027.14 361.921 1014.17 365.136 1014.17 365.136L959.052 372.37L952.567 317.712Z" fill="#575A89"/>
<path d="M1003.47 326.956L986.289 312.086L974.94 322.937L989.207 342.228L1003.47 326.956Z" fill="#575A89"/>
<path opacity="0.2" d="M957.431 341.424L960.025 371.969L1004.77 368.753L965.861 367.95L957.431 341.424Z" fill="black"/>
<path d="M1090.52 376.897C1108.43 376.897 1122.95 358.903 1122.95 336.707C1122.95 314.511 1108.43 296.517 1090.52 296.517C1072.61 296.517 1058.1 314.511 1058.1 336.707C1058.1 358.903 1072.61 376.897 1090.52 376.897Z" fill="#2F2E41"/>
<path d="M923.71 219.247L963.916 217.512L967.807 199.153L926.304 200.705L923.71 219.247Z" fill="#F5B539" fill-opacity="0.58"/>
<path d="M913.334 229.697L974.292 227.285L974.94 224.07L913.983 226.73L913.334 229.697Z" fill="#E6E6E6"/>
<path d="M912.037 237.735L972.995 235.323L973.644 232.108L912.685 234.768L912.037 237.735Z" fill="#E6E6E6"/>
<path d="M911.389 244.165L972.346 241.754L972.995 238.538L912.037 241.198L911.389 244.165Z" fill="#E6E6E6"/>
</svg>
