<svg width="630" height="309" viewBox="0 0 630 309" fill="none" xmlns="http://www.w3.org/2000/svg">
<path d="M496.289 309C570.136 309 630 306.13 630 302.591C630 299.051 570.136 296.181 496.289 296.181C422.443 296.181 362.578 299.051 362.578 302.591C362.578 306.13 422.443 309 496.289 309Z" fill="#D0CDE1"/>
<path d="M495.959 172.774L506.034 211.956C506.034 211.956 506.407 239.57 508.646 250.392C510.885 261.213 518.348 287.335 518.348 287.335L527.303 288.827L525.438 252.257C525.438 252.257 525.438 230.241 523.572 225.39C521.706 220.539 517.975 170.908 517.975 170.908L495.959 172.774Z" fill="#FFB8B8"/>
<path opacity="0.1" d="M495.959 172.774L506.034 211.956C506.034 211.956 506.407 239.57 508.646 250.392C510.885 261.213 518.348 287.335 518.348 287.335L527.303 288.827L525.438 252.257C525.438 252.257 525.438 230.241 523.572 225.39C521.706 220.539 517.975 170.908 517.975 170.908L495.959 172.774Z" fill="black"/>
<path d="M523.891 8.54691H523.891C511.453 8.54691 501.37 19.7373 501.37 33.5414V51.0797H506.764L509.887 44.5816L509.106 51.0797H543.775L546.614 45.1723L545.904 51.0797H549.807V37.309C549.807 21.4242 538.204 8.54691 523.891 8.54691Z" fill="#2F2E41"/>
<path d="M486.444 166.617C486.444 166.617 481.966 185.648 487.936 187.514C493.906 189.38 492.414 166.617 492.414 166.617H486.444Z" fill="#FFB8B8"/>
<path d="M493.907 69.9676L490.922 73.3261L491.668 137.883L484.951 168.483L499.877 169.975L507.34 108.403L505.101 77.0581L493.907 69.9676Z" fill="#3F3D56"/>
<path opacity="0.1" d="M493.907 69.9676L490.922 73.3261L491.668 137.883L484.951 168.483L499.877 169.975L507.34 108.403L505.101 77.0581L493.907 69.9676Z" fill="black"/>
<path d="M521.899 48.629C530.754 48.629 537.932 41.4506 537.932 32.5956C537.932 23.7406 530.754 16.5622 521.899 16.5622C513.044 16.5622 505.866 23.7406 505.866 32.5956C505.866 41.4506 513.044 48.629 521.899 48.629Z" fill="#FFB8B8"/>
<path d="M512.707 42.2156C512.707 42.2156 517.41 66.5864 515.272 69.1518C513.134 71.7171 537.931 64.4486 537.931 64.4486C537.931 64.4486 529.808 47.7739 534.084 38.3676L512.707 42.2156Z" fill="#FFB8B8"/>
<path d="M553.237 149.078C553.237 149.078 557.715 168.109 551.744 169.975C545.774 171.841 547.266 149.078 547.266 149.078H553.237Z" fill="#FFB8B8"/>
<path d="M518.721 168.296C518.721 168.296 512.377 206.359 512.75 211.956C513.123 217.553 512.75 218.3 512.75 218.3C512.75 218.3 506.407 234.719 504.541 244.048C502.675 253.377 498.571 265.318 498.571 265.318C498.571 265.318 493.72 276.14 497.824 276.14C501.929 276.14 507.526 274.647 507.526 274.647C507.512 270.337 508.959 266.149 511.631 262.767C516.109 257.109 529.542 230.614 529.542 227.256C529.542 223.897 531.781 214.195 531.781 214.195L540.363 172.774L518.721 168.296Z" fill="#FFB8B8"/>
<path d="M492.601 142.921C492.601 142.921 486.257 175.013 491.854 175.759C497.452 176.506 505.288 170.908 515.363 177.252C525.438 183.596 542.229 182.103 542.229 182.103C542.229 182.103 553.797 152.623 543.349 145.533C532.9 138.443 492.601 142.921 492.601 142.921Z" fill="#2F2E41"/>
<path d="M499.691 271.662C501.333 270.947 503.138 270.689 504.915 270.916C506.615 271.168 508.348 270.768 509.766 269.796C509.766 269.796 506.78 280.618 507.154 284.723C507.527 288.827 506.034 306.366 498.198 304.5C490.362 302.634 488.123 297.037 491.108 287.335C494.093 277.632 493.347 266.438 493.347 266.438C493.347 266.438 498.793 260.812 499.801 261.572C500.81 262.333 499.691 271.662 499.691 271.662Z" fill="#2F2E41"/>
<path d="M524.691 285.469C524.691 285.469 520.96 277.259 516.482 284.722C512.004 292.186 511.631 294.052 511.631 294.052C511.631 294.052 498.944 305.62 507.9 306.739C516.855 307.859 523.945 306.366 523.945 304.5C523.945 302.634 528.423 303.007 528.796 301.515C529.169 300.022 528.05 286.215 528.05 286.215L524.691 285.469Z" fill="#2F2E41"/>
<path d="M533.087 54.6682C533.087 54.6682 517.415 57.6535 515.549 57.2803C515.129 57.2061 514.704 57.161 514.277 57.1454C510.628 56.9796 507.01 57.8769 503.861 59.7285C498.665 62.7471 490.921 68.1191 490.921 73.3263C490.921 81.1627 500.996 94.5965 500.996 94.5965C500.996 94.5965 491.668 126.688 492.414 129.674C493.16 132.659 486.817 142.734 490.921 146.093C495.026 149.451 534.206 146.093 541.296 149.451C548.386 152.81 545.028 104.672 545.028 104.672C545.028 104.672 564.058 61.012 554.356 56.9072C551.217 55.5789 548.507 54.5633 546.278 53.797C544.132 53.0582 541.86 52.7547 539.595 52.9042C537.33 53.0538 535.117 53.6535 533.087 54.6682Z" fill="#3F3D56"/>
<path d="M547.64 57.2803L556.202 58.6953C556.202 58.6953 559.954 62.5046 559.954 64.3704C559.954 66.2362 559.207 146.839 558.088 149.451C556.969 152.063 544.655 150.944 544.655 150.944L546.894 105.045L547.64 57.2803Z" fill="#3F3D56"/>
<path d="M530.294 15.4321C529.21 13.9767 527.806 12.7907 526.189 11.9659C524.573 11.1411 522.789 10.6997 520.974 10.6761H520.532C512.007 10.6761 505.096 18.3907 505.096 27.907V27.9071H507.953L508.414 24.3955L509.09 27.9071H526.032L527.452 24.9362L527.097 27.9071H530.43C531.985 35.6313 529.75 43.3555 523.726 51.0797H529.403L532.242 45.138L531.533 51.0797H542.355L544.485 37.4137C544.485 27.1792 538.538 18.5005 530.294 15.4321Z" fill="#2F2E41"/>
<path d="M533.405 16.8711C538.064 16.8711 541.841 13.0944 541.841 8.43555C541.841 3.77672 538.064 0 533.405 0C528.747 0 524.97 3.77672 524.97 8.43555C524.97 13.0944 528.747 16.8711 533.405 16.8711Z" fill="#2F2E41"/>
<path d="M412.754 10.8312H57.3223V238.249H412.754V10.8312Z" fill="#3F3D56"/>
<path d="M402.647 51.8929H242.618V238.039H402.647V51.8929Z" fill="#F5B539"/>
<path d="M393.803 69.2133H296.746V73.1271H393.803V69.2133Z" fill="white"/>
<path d="M393.803 77.8236H296.746V81.7373H393.803V77.8236Z" fill="white"/>
<path d="M329.62 86.4339H296.746V90.3476H329.62V86.4339Z" fill="white"/>
<path d="M194.498 153.382H97.4409V157.295H194.498V153.382Z" fill="white"/>
<path d="M194.498 161.992H97.4409V165.906H194.498V161.992Z" fill="white"/>
<path d="M130.315 170.602H97.4409V174.516H130.315V170.602Z" fill="white"/>
<path d="M371.062 117.224H274.004V121.138H371.062V117.224Z" fill="white"/>
<path d="M371.062 125.834H274.004V129.748H371.062V125.834Z" fill="white"/>
<path d="M371.062 134.257H274.004V138.171H371.062V134.257Z" fill="white"/>
<path d="M371.062 142.68H274.004V146.594H371.062V142.68Z" fill="white"/>
<path d="M371.062 151.103H274.004V155.017H371.062V151.103Z" fill="white"/>
<path d="M371.062 159.526H274.004V163.439H371.062V159.526Z" fill="white"/>
<path d="M371.062 167.949H274.004V171.862H371.062V167.949Z" fill="white"/>
<path d="M371.062 176.371H274.004V180.285H371.062V176.371Z" fill="white"/>
<path d="M371.062 184.794H274.004V188.708H371.062V184.794Z" fill="white"/>
<path d="M371.062 193.217H274.004V197.131H371.062V193.217Z" fill="white"/>
<path d="M371.062 201.64H274.004V205.554H371.062V201.64Z" fill="white"/>
<path d="M181.336 91.1504C181.342 96.4233 180.166 101.63 177.894 106.389C175.622 111.147 172.313 115.336 168.209 118.647C166.692 119.88 165.073 120.983 163.371 121.944C162.343 122.528 161.286 123.058 160.204 123.532C156.616 125.116 152.788 126.085 148.88 126.4C147.919 126.48 146.949 126.52 145.97 126.518C144.031 126.52 142.096 126.361 140.183 126.042C139.51 125.937 138.844 125.806 138.187 125.655C137.039 125.399 135.904 125.084 134.789 124.711C130.201 123.181 125.977 120.724 122.378 117.493C121.451 116.671 120.572 115.797 119.746 114.873C115.895 110.616 113.139 105.485 111.715 99.9235C110.291 94.3622 110.242 88.5379 111.573 82.9535C112.904 77.3692 115.574 72.1928 119.353 67.8713C123.132 63.5499 127.906 60.2135 133.263 58.1501C138.619 56.0868 144.398 55.3586 150.099 56.0284C155.801 56.6983 161.253 58.7461 165.986 61.9949C170.719 65.2438 174.589 69.596 177.264 74.6756C179.938 79.7553 181.336 85.4097 181.336 91.1504Z" fill="#F5B539"/>
<path d="M412.544 110.432C396.907 110.432 381.911 116.644 370.854 127.701C359.797 138.758 353.586 153.755 353.586 169.392V169.392C353.586 173.972 351.767 178.364 348.529 181.602C345.291 184.84 340.899 186.659 336.32 186.659H307.683C300.936 186.659 294.255 187.988 288.021 190.57C281.788 193.152 276.124 196.937 271.353 201.708C266.582 206.479 262.798 212.143 260.216 218.377C257.634 224.61 256.305 231.292 256.305 238.039V238.039H412.544V110.432H412.544Z" fill="#3F3D56"/>
<path d="M238.617 10.8312H231.037V238.249H238.617V10.8312Z" fill="#2F2E41"/>
<path d="M44.7324 284.102C44.8038 291.421 40.478 294.019 35.1116 294.071C34.987 294.072 34.8629 294.072 34.7395 294.07C34.4907 294.067 34.2445 294.059 34.0008 294.044C29.1541 293.748 25.3646 291.098 25.2982 284.292C25.2295 277.248 34.1448 268.271 34.8135 267.608L34.8147 267.607C34.8401 267.582 34.8531 267.569 34.8531 267.569C34.8531 267.569 44.6611 276.784 44.7324 284.102Z" fill="#D0CDE1"/>
<path d="M34.9588 295.509C54.266 295.509 69.9176 294.404 69.9176 293.041C69.9176 291.679 54.266 290.574 34.9588 290.574C15.6516 290.574 0 291.679 0 293.041C0 294.404 15.6516 295.509 34.9588 295.509Z" fill="#D0CDE1"/>
</svg>
