<svg width="120" height="51" viewBox="0 0 120 51" fill="none" xmlns="http://www.w3.org/2000/svg">
<path d="M28.4386 6.28532C28.0923 6.72072 27.7247 7.13199 27.3358 7.51913C26.971 7.88491 26.5201 8.16552 25.9831 8.36097C25.6142 9.91361 25.29 11.4804 25.0107 13.0613C24.7541 14.6437 24.4748 16.2246 24.1727 17.8042C23.8934 19.3851 23.58 20.964 23.2324 22.5408C22.909 24.0962 22.4953 25.6347 21.9913 27.1562L22.0004 27.5677C22.018 28.0254 21.9347 28.454 21.7505 28.8537C21.5662 29.2533 21.4709 29.6927 21.4644 30.1717C21.0973 30.9483 20.7701 31.8186 20.4829 32.7827C20.197 33.724 20.0049 34.6254 19.9066 35.4869C19.6555 35.8596 19.4364 36.2686 19.2494 36.7137C19.0851 37.1602 18.9087 37.6174 18.7203 38.0853C18.556 38.5319 18.3697 38.9656 18.1613 39.3866C17.9543 39.7849 17.6926 40.1456 17.376 40.4687C17.2758 40.9876 17.1094 41.4682 16.8769 41.9106C16.6657 42.3771 16.4212 42.8301 16.1432 43.2697C15.8879 43.7107 15.6333 44.1403 15.3795 44.5585C15.1469 45.0009 14.9699 45.4694 14.8483 45.9642C14.4255 46.5319 14.0041 47.0769 13.584 47.5991C13.1626 48.144 12.7739 48.7138 12.4179 49.3084C12.1139 49.4268 11.8433 49.5586 11.6061 49.7039C11.3903 49.8734 11.1759 50.0201 10.9628 50.144C10.7484 50.2907 10.5013 50.4126 10.2214 50.5096C9.96423 50.608 9.65371 50.6461 9.28981 50.6238C9.19883 50.6183 9.10855 50.6013 9.01897 50.573C8.95074 50.5688 8.87113 50.564 8.78016 50.5584C8.47704 50.2887 8.17393 50.0191 7.87082 49.7494C7.56631 49.5025 7.23767 49.277 6.8849 49.0727C6.89324 48.9363 6.87745 48.8212 6.83753 48.7274C6.82035 48.635 6.80317 48.5427 6.78599 48.4503C6.76881 48.3579 6.763 48.2663 6.76857 48.1753C6.77413 48.0843 6.80383 47.972 6.85767 47.8383C6.66132 47.6893 6.43781 47.4245 6.18714 47.0439C5.95782 46.6875 5.85081 46.3842 5.86612 46.134C5.88003 45.9065 5.96659 45.7977 6.12579 45.8074C6.09422 45.5772 6.02852 45.3449 5.92871 45.1105C5.85026 44.9002 5.81798 44.6814 5.8319 44.4539C5.84163 44.2947 5.89755 44.1269 5.99966 43.9506C5.78564 43.3439 5.59576 42.7159 5.43002 42.0666C5.26288 41.44 5.16537 40.7948 5.13748 40.131C4.92812 39.8214 4.76704 39.4692 4.65422 39.0742C4.56554 38.6578 4.5003 38.2315 4.4585 37.7952C4.4167 37.3589 4.38557 36.9346 4.36512 36.5225C4.34607 36.0875 4.31355 35.686 4.26758 35.318C4.25318 35.1801 4.20953 34.9606 4.13664 34.6593C4.06514 34.3354 4.03287 34.1165 4.03982 34.0028C4.04817 33.8663 4.07717 33.7654 4.12683 33.6999C4.19924 33.6359 4.26166 33.5484 4.31411 33.4374C4.10795 32.329 3.94798 31.212 3.83419 30.0864C3.74315 28.9623 3.6521 27.8381 3.56106 26.7139C3.49276 25.5911 3.38964 24.4776 3.25172 23.3733C3.13793 22.2477 2.94315 21.14 2.66737 20.0502L2.68615 19.7432C2.73066 19.0154 2.48184 18.418 1.93967 17.9511C2.07425 17.6169 2.1485 17.3361 2.16241 17.1086C2.1805 16.8129 2.1524 16.5259 2.07811 16.2474C2.02658 15.9703 1.96366 15.6925 1.88938 15.414C1.8151 15.1355 1.76356 14.8584 1.73476 14.5827C1.72871 14.3084 1.76815 14.0368 1.85308 13.7681C1.61959 13.4798 1.43297 13.1716 1.29324 12.8435C1.15351 12.5153 0.965506 12.2299 0.729233 11.9872L0.707637 11.7804C0.714592 11.6667 0.754968 11.5664 0.828764 11.4796C0.879816 11.3914 0.90882 11.2904 0.915776 11.1767C0.925513 11.0175 0.899744 10.879 0.838467 10.7611C0.754447 10.6418 0.669731 10.5339 0.584319 10.4373C0.476164 10.3394 0.390752 10.2429 0.328085 10.1477C0.242673 10.0512 0.203445 9.94604 0.210401 9.83232C0.227094 9.55939 0.331285 9.34889 0.522974 9.20081C0.714663 9.05273 0.927705 8.92879 1.1621 8.82898C1.39789 8.70642 1.6223 8.58318 1.83534 8.45923C2.07113 8.33668 2.23079 8.1524 2.31432 7.90639C2.49349 7.963 2.67336 8.00825 2.85392 8.04212C3.03587 8.05325 3.21504 8.10987 3.39143 8.21197C3.41556 8.19062 3.42902 8.1572 3.4318 8.11171C3.43597 8.04348 3.32573 7.97966 3.10108 7.92026C2.90055 7.83951 2.76896 7.75156 2.70629 7.65641C2.89102 7.62205 3.02888 7.60766 3.11985 7.61322C3.57473 7.64104 3.99991 7.78119 4.39539 8.03367C4.81362 8.28754 5.2084 8.55139 5.57975 8.82522C5.61272 9.0327 5.61087 9.24947 5.57422 9.47551C5.53896 9.67882 5.59536 9.87632 5.74344 10.068C5.71374 10.1803 5.69611 10.282 5.69055 10.373C5.70773 10.4653 5.71353 10.557 5.70797 10.648C5.70101 10.7617 5.67201 10.8627 5.62096 10.9508C5.59404 11.0177 5.53509 11.0483 5.44412 11.0428C5.58663 11.3254 5.66881 11.6615 5.69065 12.0509C5.73523 12.4417 5.76775 12.8432 5.7882 13.2554C5.83139 13.669 5.88665 14.0718 5.95398 14.4641C6.02131 14.8563 6.17102 15.2079 6.40312 15.5188C6.34928 15.6525 6.30682 15.7869 6.27573 15.922C6.26738 16.0584 6.25834 16.2063 6.24861 16.3655C6.20409 17.0933 6.25125 17.8153 6.39008 18.5315C6.5289 19.2477 6.57606 19.9697 6.53155 20.6975C6.50512 21.1296 6.41254 21.5234 6.25382 21.879C6.2413 22.0837 6.2991 22.2585 6.42722 22.4033C6.55672 22.5253 6.63796 22.6901 6.67093 22.8976C6.54052 23.1636 6.46766 23.4216 6.45236 23.6718C6.42036 24.1949 6.49211 24.7016 6.66759 25.1917C6.84446 25.6591 6.9176 26.143 6.887 26.6433C6.87726 26.8026 6.84547 26.949 6.79164 27.0827C6.7378 27.2164 6.68466 27.3387 6.63222 27.4496C6.8244 27.6668 6.91075 27.9346 6.89127 28.2531C6.89454 28.5729 6.98089 28.8407 7.15032 29.0565C7.12062 29.1688 7.09092 29.2812 7.06123 29.3935C7.05427 29.5072 6.99185 29.5947 6.87395 29.656C6.97793 29.8221 7.02158 30.0417 7.00489 30.3146C7.01233 30.5662 7.10563 30.7203 7.2848 30.7769C7.23236 30.8878 7.19198 30.9881 7.16368 31.0777C7.13537 31.1673 7.11774 31.2689 7.11078 31.3826C7.09548 31.6328 7.11568 31.8624 7.1714 32.0712L7.33853 32.6978C7.39425 32.9067 7.42652 33.1255 7.43535 33.3544C7.46693 33.5846 7.42888 33.8334 7.32121 34.1008C7.40384 34.2428 7.46234 34.4062 7.4967 34.5909C7.5538 34.777 7.59884 34.9738 7.6318 35.1813C7.66616 35.366 7.72396 35.5408 7.8052 35.7056C7.88783 35.8476 8.01873 35.9469 8.1979 36.0035C8.2123 36.1414 8.15126 36.2061 8.0148 36.1978C7.90108 36.1908 7.84074 36.2442 7.83379 36.3579C7.82266 36.5399 7.87698 36.7715 7.99675 37.0528C8.11791 37.3113 8.23187 37.5009 8.33864 37.6216C8.31033 37.7112 8.29339 37.8014 8.28783 37.8924L8.26905 38.1995C8.24957 38.5179 8.27489 38.8505 8.345 39.1972C8.4165 39.5212 8.47663 39.8444 8.52539 40.167C8.5955 40.5138 8.64356 40.8477 8.66957 41.1689C8.69558 41.4901 8.65476 41.7844 8.54709 42.0518C8.70956 42.3813 8.84791 42.7322 8.96211 43.1044C9.07632 43.4767 9.27361 43.7969 9.55398 44.0652C9.53033 44.4519 9.58767 44.8206 9.72602 45.1715C9.86297 45.5452 10.0468 45.8989 10.2775 46.2326C10.5049 46.2465 10.6804 46.1773 10.8038 46.0251C10.9259 45.8956 11.0266 45.7419 11.106 45.5641C11.1854 45.3863 11.2754 45.2206 11.3761 45.067C11.4768 44.9134 11.6302 44.8314 11.8363 44.8212C11.873 44.5951 11.9416 44.4053 12.0424 44.2517C12.1644 44.1221 12.2758 43.9806 12.3765 43.8269C12.5 43.6747 12.6014 43.5097 12.6807 43.3319C12.7829 43.1555 12.8309 42.9301 12.8248 42.6558L13.2064 42.5764C13.3576 41.9693 13.5623 41.4225 13.8203 40.936C14.0997 40.4737 14.4033 39.9901 14.7309 39.485L14.7414 39.3144C14.7553 39.087 14.8012 38.8958 14.8792 38.7407C14.9572 38.5857 14.9811 38.3817 14.9509 38.1287C15.1129 38.093 15.2321 38.009 15.3087 37.8767C15.3853 37.7444 15.4505 37.6114 15.5043 37.4777C15.5596 37.3213 15.6141 37.1762 15.6679 37.0426C15.7459 36.8875 15.8552 36.7801 15.9958 36.7202L16.0125 36.4472C16.0023 36.2412 16.0255 36.0485 16.0821 35.8694C16.1629 35.6688 16.164 35.4634 16.0856 35.2532C16.2717 35.1961 16.4151 35.0907 16.5158 34.9371C16.6165 34.7834 16.6952 34.617 16.7518 34.4378C16.8312 34.2601 16.8771 34.0688 16.8896 33.8641C16.9249 33.6608 16.9474 33.4796 16.9571 33.3204C17.1289 33.1254 17.2572 32.8936 17.3421 32.6248C17.4284 32.3333 17.5034 32.0411 17.567 31.7482C17.6305 31.4553 17.7048 31.1745 17.7897 30.9058C17.8974 30.6384 18.0484 30.4079 18.2429 30.2144C18.2044 30.0979 18.1879 29.9941 18.1935 29.9031L18.2122 29.5961C18.2387 29.164 18.3305 28.7815 18.4879 28.4487C18.6466 28.0931 18.7953 27.7141 18.9341 27.3117C19.2924 26.3063 19.561 25.2726 19.7402 24.2106C19.9434 23.1272 20.2021 22.0701 20.5163 21.0392C20.546 20.9268 20.6026 20.7477 20.6861 20.5016C20.7696 20.2556 20.8532 20.0096 20.9367 19.7636C21.0216 19.4949 21.0931 19.2595 21.1511 19.0576C21.2333 18.8343 21.2764 18.6886 21.2806 18.6204C21.2917 18.4384 21.2539 18.3105 21.1671 18.2367C21.103 18.1643 21.0759 18.0485 21.0856 17.8893C21.2346 17.693 21.3416 17.437 21.4065 17.1214C21.4715 16.8057 21.5258 16.478 21.5694 16.1383C21.6144 15.7757 21.6352 15.4346 21.632 15.1148C21.6528 14.7736 21.6709 14.4779 21.6862 14.2278C21.7015 13.9776 21.7779 13.6626 21.9152 13.2829C22.0526 12.9033 22.1531 12.567 22.2166 12.2741C22.3777 11.5077 22.4925 10.75 22.5611 10.0008C22.6539 9.23031 22.7467 8.4598 22.8395 7.68929C23.0043 7.60805 23.1249 7.50128 23.2015 7.36899C23.2795 7.21396 23.3233 7.05684 23.3331 6.89763C23.3484 6.64745 23.3289 6.40655 23.2746 6.17494C23.243 5.94471 23.2348 5.70451 23.2501 5.45433C23.2571 5.34061 23.2754 5.22758 23.3051 5.11526C23.3362 4.98018 23.4 4.86994 23.4966 4.78453C23.4836 4.62393 23.4706 4.46333 23.4575 4.30273C23.4673 4.14353 23.4188 4.00358 23.312 3.88291C23.4438 3.59419 23.5188 3.302 23.5368 3.00633C23.5535 2.7334 23.5361 2.45839 23.4846 2.18129C23.4558 1.90558 23.4504 1.61989 23.4685 1.32421C23.5033 0.755615 23.7671 0.36083 24.2601 0.139859L24.7377 0.169072C24.9651 0.182982 25.1933 0.185521 25.4221 0.176688C25.6509 0.167855 25.8939 0.114229 26.151 0.0158115C26.4272 0.352311 26.7127 0.723622 27.0075 1.12974C27.3036 1.51312 27.5522 1.92783 27.7532 2.37388C27.9542 2.81993 28.0977 3.27387 28.1836 3.7357C28.2695 4.19754 28.2517 4.67586 28.1301 5.17066C28.2099 5.35817 28.2557 5.5436 28.2673 5.72695C28.2789 5.91029 28.336 6.09641 28.4386 6.28532ZM20.3417 24.4528C20.2521 24.4245 20.186 24.3862 20.1433 24.338C20.1247 24.2683 20.0593 24.2187 19.9469 24.189L19.924 24.5643L20.1969 24.581L20.3417 24.4528ZM49.3684 20.1671L49.3601 20.3035C49.1981 20.3393 49.1115 20.4481 49.1004 20.6301C48.8433 20.7285 48.5762 20.8035 48.2991 20.855C48.0233 20.8838 47.7569 20.9474 47.4998 21.0458C47.251 21.0078 46.9901 20.9804 46.7172 20.9637C46.4684 20.9257 46.2189 20.899 45.9687 20.8837C45.2864 20.842 44.6027 20.823 43.9176 20.8268C43.2325 20.8305 42.5502 20.7888 41.8707 20.7016C41.5411 20.864 41.1795 20.9903 40.7859 21.0804C40.4165 21.1491 40.0611 21.173 39.72 21.1522C39.4471 21.1355 39.2103 21.0867 39.0098 21.006C38.4473 21.2455 37.8306 21.4361 37.1599 21.5777C36.512 21.7207 35.8526 21.863 35.1819 22.0046C34.5126 22.1235 33.864 22.2779 33.236 22.4678C32.6321 22.6363 32.0909 22.9 31.6124 23.2588C31.5474 23.5744 31.4938 23.8907 31.4516 24.2078C31.4108 24.5021 31.3813 24.797 31.3633 25.0927C31.3438 25.4111 31.3371 25.7075 31.3431 25.9818C31.3719 26.2575 31.4348 26.5353 31.5318 26.8152C31.6428 26.8676 31.7658 26.9094 31.9009 26.9405C32.0587 26.973 32.1944 26.9927 32.3082 26.9996C32.4219 27.0066 32.5363 27.0022 32.6514 26.9864C32.7679 26.9479 32.8524 26.8731 32.9048 26.7622C33.2488 26.7376 33.5906 26.7471 33.9304 26.7907C34.2716 26.8115 34.6127 26.8324 34.9539 26.8533C35.295 26.8741 35.6255 26.8829 35.9453 26.8797C36.2879 26.8778 36.6211 26.8411 36.9451 26.7696C37.3146 26.7009 37.6706 26.6656 38.0131 26.6637C38.3784 26.6632 38.7324 26.662 39.0749 26.6602C39.4175 26.6583 39.7721 26.6457 40.1388 26.6225C40.5068 26.5765 40.8898 26.4744 41.2875 26.3161C41.5763 26.4479 41.8685 26.5228 42.1641 26.5409C42.4825 26.5604 42.7882 26.6019 43.0811 26.6655C43.2333 26.7889 43.3508 26.9217 43.4334 27.0637C43.5388 27.2071 43.5859 27.3698 43.5748 27.5518C43.5553 27.8702 43.4221 28.1816 43.1752 28.4861C42.9283 28.7906 42.7282 29.0752 42.5751 29.3398L42.1998 29.3168C41.654 29.2834 41.1146 29.3303 40.5818 29.4576C40.073 29.5634 39.5509 29.7027 39.0152 29.8754C38.5037 30.0268 37.9816 30.166 37.4487 30.2932C36.94 30.3991 36.4127 30.4353 35.8669 30.402C35.7759 30.3964 35.7156 30.4498 35.6859 30.5621C35.6803 30.6531 35.6534 30.7199 35.6051 30.7626C35.4928 30.7329 35.3229 30.7111 35.0954 30.6972C34.5723 30.6652 34.0685 30.6915 33.5839 30.776C33.0993 30.8605 32.6069 30.8874 32.1065 30.8568C31.97 30.8485 31.8336 30.8401 31.6971 30.8318C31.562 30.8007 31.427 30.7696 31.2919 30.7385C31.167 30.9135 31.0116 31.0296 30.8254 31.0867C30.6407 31.121 30.4645 31.2016 30.297 31.3283C30.2162 31.5288 30.1555 31.7762 30.1146 32.0705C30.0965 32.3662 30.0664 32.6725 30.0242 32.9895C30.0061 33.2852 29.966 33.5681 29.9038 33.8383C29.8416 34.1084 29.7374 34.3189 29.5912 34.4698C29.607 34.5849 29.6952 34.6359 29.8558 34.6229C30.0178 34.5872 30.0932 34.6603 30.0821 34.8422C30.0696 35.0469 30.0336 35.2616 29.9742 35.4863C29.9148 35.7109 29.8781 35.937 29.8642 36.1644C29.8378 36.5966 29.8541 37.077 29.9131 37.6056C29.9962 38.113 30.1269 38.5889 30.3051 39.0336C30.5061 39.4796 30.7796 39.8616 31.1254 40.1796C31.4726 40.4747 31.9191 40.639 32.465 40.6724C32.8289 40.6947 33.1742 40.6473 33.501 40.5303C33.8277 40.4133 34.1032 40.2019 34.3274 39.896L34.5 39.8723C34.591 39.8779 34.6699 39.8941 34.7368 39.921C34.8263 39.9493 34.9166 39.9663 35.0076 39.9718C35.1441 39.9802 35.3195 39.911 35.5339 39.7643C35.7725 39.5963 36.0238 39.4062 36.2879 39.1941C36.5748 38.9833 36.8609 38.7839 37.1464 38.5959C37.4332 38.3852 37.7045 38.242 37.9602 38.1663C38.1389 37.8576 38.3062 37.5483 38.4622 37.2382C38.6409 36.9295 38.8836 36.6932 39.1904 36.5294L39.2509 35.54C39.4937 35.3037 39.7464 35.0909 40.0091 34.9015C40.2945 34.7135 40.5152 34.4645 40.6712 34.1544C40.7821 34.2068 40.8824 34.2472 40.9719 34.2755C41.0843 34.3052 41.1973 34.3236 41.311 34.3305C41.4247 34.3375 41.5392 34.333 41.6543 34.3173C41.7921 34.3029 41.9193 34.2764 42.0358 34.2379C42.2024 34.4992 42.3215 34.7918 42.393 35.1158C42.4887 35.4184 42.6077 35.7111 42.7502 35.9937C42.5205 36.3906 42.2518 36.865 41.9441 37.4169C41.6364 37.9688 41.3059 38.5193 40.9527 39.0684C40.5996 39.6176 40.225 40.1426 39.8291 40.6434C39.4573 41.1229 39.0925 41.4887 38.7347 41.7408C38.6623 41.8048 38.5096 41.8754 38.2766 41.9524C38.0153 42.1191 37.7774 42.2758 37.563 42.4225C37.3471 42.5919 37.1413 42.7848 36.9454 43.0011C36.2733 43.1654 35.6198 43.3994 34.9849 43.703C34.3726 44.008 33.7611 44.3016 33.1503 44.5839C32.8816 44.4989 32.588 44.4467 32.2696 44.4273C31.9966 44.4106 31.723 44.4052 31.4487 44.4113C31.173 44.4401 30.8759 44.4447 30.5575 44.4253C30.4735 44.306 30.3419 44.218 30.1627 44.1614C30.0049 44.1289 29.955 44.0117 30.013 43.8098C29.2425 43.717 28.6302 43.4627 28.1763 43.0469C27.7209 42.6537 27.3393 42.1738 27.0316 41.6071C26.7465 41.0418 26.5211 40.4344 26.3554 39.7851C26.1897 39.1357 26.0111 38.5084 25.8199 37.9032L25.8261 37.8008C25.8331 37.6871 25.8828 37.6217 25.9751 37.6045C26.0675 37.5873 26.1171 37.5219 26.1241 37.4081C26.1269 37.3626 26.1176 37.3278 26.0962 37.3037C26.0433 37.0493 25.9997 36.8298 25.9653 36.6451C25.931 36.4603 25.9214 36.2429 25.9367 35.9927C25.959 35.6288 26.0033 35.2776 26.0696 34.9393C26.1374 34.5781 26.1824 34.2156 26.2046 33.8517C26.2269 33.4878 26.2009 33.1666 26.1266 32.8881C26.2245 32.78 26.3132 32.637 26.3925 32.4592C26.4506 32.2573 26.4972 32.0547 26.5325 31.8514C26.5677 31.6481 26.5916 31.4441 26.6041 31.2394C26.6394 31.0361 26.6846 30.8562 26.7399 30.6998C26.6642 30.4441 26.5978 30.2231 26.5407 30.037C26.485 29.8281 26.4655 29.5872 26.4822 29.3143L26.4968 29.0755C26.7479 28.7028 26.9655 28.3166 27.1498 27.9169C27.334 27.5173 27.5303 27.1069 27.7387 26.6859L27.745 26.5836C27.7853 25.924 27.8029 25.263 27.7978 24.6007C27.7926 23.9383 27.8102 23.2774 27.8506 22.6178L27.8902 21.9696C27.9041 21.7421 27.9287 21.5268 27.964 21.3235C28.1515 21.2436 28.2956 21.1269 28.3963 20.9732C28.497 20.8196 28.6411 20.7028 28.8287 20.623L29.9545 20.6918L30.18 20.3632C30.2552 20.2537 30.3084 20.1313 30.3395 19.9963C30.5938 19.9433 30.8382 19.867 31.0726 19.7672C31.3311 19.646 31.5669 19.5235 31.7799 19.3995C32.1095 19.237 32.4035 19.0952 32.6621 18.9741C32.9447 18.8315 33.2139 18.7224 33.4697 18.6468C33.7496 18.5497 34.0394 18.4762 34.3393 18.426C34.6391 18.3759 34.9838 18.3399 35.3732 18.318C35.5551 18.3292 35.6709 18.302 35.7206 18.2365C35.793 18.1725 35.8889 18.0984 36.0081 18.0144C36.2783 18.0766 36.5484 18.1388 36.8186 18.201C37.0901 18.2404 37.3623 18.2685 37.6353 18.2852C38.1811 18.3185 38.6991 18.2475 39.1893 18.072C39.8716 18.1138 40.5432 18.1434 41.2042 18.161C41.8879 18.18 42.5709 18.2104 43.2532 18.2521C43.8446 18.2883 44.4345 18.3472 45.0231 18.4288C45.6117 18.5105 46.1868 18.6256 46.7484 18.7741C46.9573 18.7183 47.1868 18.6981 47.437 18.7134C47.7099 18.7301 47.9807 18.7809 48.2495 18.8659C48.5424 18.9294 48.8267 18.9468 49.1024 18.918C49.1098 19.1696 49.1535 19.3892 49.2333 19.5767C49.3373 19.7428 49.3823 19.9396 49.3684 20.1671ZM90.4011 38.4973C90.3348 38.8356 90.1937 39.0896 89.9779 39.259C89.7848 39.4298 89.5583 39.5872 89.2984 39.7311C89.186 39.7014 89.073 39.683 88.9593 39.6761C88.8697 39.6478 88.7681 39.6302 88.6543 39.6232C87.9507 39.5573 87.2742 39.6073 86.6248 39.773C85.9982 39.9402 85.3523 40.049 84.6872 40.0997C84.457 40.1312 84.2395 40.1408 84.0348 40.1283C83.8542 40.0944 83.6602 40.0939 83.4528 40.1269C82.718 40.1961 81.9391 40.2398 81.1162 40.2579C80.2932 40.2761 79.4689 40.317 78.6431 40.3806C77.8188 40.4215 77.0037 40.4972 76.198 40.6078C75.4163 40.6969 74.676 40.8571 73.977 41.0883C73.9115 41.0386 73.8461 40.989 73.7806 40.9393C73.7166 40.8669 73.639 40.8279 73.5481 40.8224C73.3206 40.8084 73.1025 40.8293 72.8936 40.8851C72.6847 40.9408 72.4787 40.951 72.2753 40.9157C72.0396 41.0383 71.7831 41.1253 71.506 41.1769C71.2531 41.2071 70.9887 41.2365 70.713 41.2653C70.4614 41.2728 70.2085 41.303 69.9541 41.3559C69.6998 41.4088 69.4533 41.5193 69.2147 41.6874C69.0383 41.5853 68.8137 41.5259 68.5407 41.5092C68.292 41.4711 68.1269 41.3697 68.0457 41.2049C67.5073 41.4231 66.9403 41.5482 66.3448 41.5803C65.772 41.6138 65.1907 41.601 64.6007 41.5421C64.2155 41.4957 63.7754 41.4117 63.2806 41.2902C62.7858 41.1686 62.2931 41.0129 61.8025 40.8231C61.3132 40.6105 60.8595 40.3773 60.4413 40.1234C60.0245 39.8468 59.7128 39.531 59.5062 39.1759C59.3609 38.9387 59.2625 38.6816 59.2109 38.4045C59.1594 38.1274 59.0127 37.913 58.7709 37.7612C58.8711 37.2423 58.982 36.7354 59.1036 36.2406C59.2252 35.7458 59.3474 35.2396 59.4704 34.7221C59.9489 34.3632 60.4061 33.9803 60.8419 33.5732C61.2777 33.1661 61.6922 32.7349 62.0853 32.2795C62.53 32.1012 62.9433 31.8754 63.3253 31.602C63.73 31.33 64.1234 31.0572 64.5054 30.7838C64.9115 30.4891 65.3055 30.205 65.6875 29.9315C66.0923 29.6595 66.5177 29.423 66.9637 29.222C67.0417 29.067 67.1403 28.9474 67.2596 28.8634C67.403 28.758 67.5457 28.664 67.6878 28.5814C67.8312 28.476 67.9632 28.37 68.0839 28.2632C68.206 28.1337 68.2953 27.9794 68.3519 27.8002C69.1772 27.3713 69.9077 26.811 70.5436 26.1193C71.1794 25.4277 71.6162 24.6326 71.8538 23.7339C71.4866 23.3919 71.0556 23.16 70.5608 23.0385C70.0901 22.8955 69.5946 22.7853 69.0743 22.7078C68.6208 22.6573 68.1432 22.6281 67.6414 22.6202C67.1624 22.6137 66.6741 22.5725 66.1765 22.4964C65.6664 22.625 65.1371 22.6953 64.5884 22.7074C64.0625 22.7209 63.5366 22.7344 63.0107 22.7479C62.4862 22.7386 61.959 22.7749 61.4289 22.8566C60.923 22.917 60.4228 23.069 59.9285 23.3127C59.8375 23.3072 59.7473 23.2902 59.6577 23.2619C59.5908 23.235 59.5119 23.2188 59.421 23.2132C58.6945 23.1459 58.0032 23.2521 57.3469 23.5315C56.692 23.7882 56.0484 24.0457 55.4162 24.3038C55.3652 24.392 55.3383 24.4588 55.3355 24.5043C55.3271 24.6408 55.3415 24.7786 55.3787 24.9179C55.44 25.0357 55.4664 25.1629 55.4581 25.2994C55.4339 25.3207 55.4212 25.3428 55.4198 25.3655C55.4184 25.3883 55.4056 25.4103 55.3815 25.4317C55.3518 25.544 55.3114 25.6443 55.2604 25.7325C55.2321 25.822 55.1917 25.9223 55.1392 26.0332C54.8445 26.7458 54.6643 27.4538 54.5984 28.1575C54.5395 28.7475 54.504 29.3274 54.492 29.8974C54.4799 30.4674 54.4445 31.0474 54.3856 31.6373C54.2956 32.3624 54.1401 33.0377 53.9192 33.6634C53.9995 34.2162 54.0664 34.8025 54.1198 35.4221C54.1746 36.019 54.2522 36.6173 54.3525 37.217C54.4528 37.8167 54.5765 38.4064 54.7237 38.9861C54.895 39.5445 55.1246 40.0836 55.4124 40.6035C55.3868 40.6476 55.3961 40.6824 55.4402 40.7079C55.4843 40.7334 55.5291 40.7476 55.5746 40.7504L55.8475 40.7671C55.9613 40.774 56.004 40.8223 55.9757 40.9119C56.017 40.9829 56.0469 41.0532 56.0655 41.1228C56.0854 41.1697 56.1281 41.218 56.1936 41.2676C56.2349 41.3386 56.2293 41.4296 56.1769 41.5406C56.1263 41.994 55.9869 42.4079 55.7585 42.782C55.5302 43.1561 55.3794 43.5692 55.3061 44.0213C55.029 44.0729 54.7767 44.0917 54.5492 44.0778C54.164 44.0314 53.8298 43.8968 53.5466 43.674C53.2621 43.474 53.0031 43.2298 52.7696 42.9416C52.5361 42.6534 52.314 42.3658 52.1032 42.079C51.8939 41.7694 51.659 41.5039 51.3986 41.2825C51.2783 40.636 51.1622 39.9212 51.0503 39.1381C50.9612 38.3565 50.7627 37.6823 50.4549 37.1156C50.5584 36.9165 50.6192 36.6691 50.6373 36.3734C50.6879 35.9199 50.6695 35.4736 50.5822 35.0345C50.5191 34.5741 50.5241 34.1178 50.5974 33.6657C50.6127 33.4155 50.6508 33.1667 50.7116 32.9193C50.7951 32.6733 50.8559 32.4259 50.8939 32.1771C50.9403 31.7919 50.9178 31.4138 50.8263 31.043C50.7576 30.6735 50.7465 30.2961 50.7929 29.9109C50.8267 29.7303 50.8713 29.5618 50.9265 29.4054C51.0059 29.2276 51.1066 29.074 51.2286 28.9445C51.1316 28.6646 51.1135 28.4009 51.1743 28.1535C51.2207 27.7683 51.2884 27.4072 51.3775 27.0702C51.4666 26.7332 51.533 26.3948 51.5766 26.055C51.5877 25.8731 51.5868 25.7018 51.5738 25.5412C51.5621 25.3579 51.5385 25.1852 51.5027 25.0232L51.2019 24.9021C51.0655 24.8938 50.9269 24.9195 50.7863 24.9794C50.6684 25.0407 50.5612 25.114 50.4646 25.1994C50.3681 25.2848 50.2836 25.3596 50.2112 25.4236C50.1402 25.465 50.0706 25.4835 50.0023 25.4794C49.9569 25.4766 49.9 25.4731 49.8318 25.4689C49.7877 25.4434 49.7429 25.4292 49.6974 25.4265C49.6519 25.4237 49.5581 25.4636 49.4161 25.5462C49.2968 25.6303 49.1427 25.7236 48.9538 25.8261C48.7891 25.9074 48.6236 26 48.4574 26.104C48.2927 26.1852 48.1641 26.2344 48.0717 26.2516C47.8243 26.1908 47.6245 26.0987 47.4722 25.9752C47.3441 25.8304 47.2153 25.697 47.0858 25.5749C46.9804 25.4315 46.8623 25.3101 46.7314 25.2108C46.6019 25.0887 46.4341 25.0328 46.228 25.043C46.1681 24.9024 46.143 24.7525 46.1528 24.5933C46.1398 24.4327 46.1495 24.2735 46.182 24.1157L46.2154 23.5698C46.3927 23.2839 46.6233 23.0583 46.9074 22.893C47.1701 22.7036 47.4535 22.5497 47.7575 22.4314L48.6695 22.0762C48.9735 21.9578 49.2569 21.8039 49.5196 21.6146L49.8267 21.6333C50.2347 21.6811 50.5921 21.6231 50.8989 21.4592C51.2284 21.2967 51.5366 21.1101 51.8234 20.8994C52.1117 20.6659 52.3999 20.4324 52.6881 20.1989C52.9991 19.9668 53.3293 19.793 53.6788 19.6774C53.9221 19.8064 54.1774 19.9247 54.4447 20.0324C54.7135 20.1173 54.995 20.1802 55.2893 20.221C55.5849 20.2391 55.8948 20.2124 56.2188 20.1409C56.5427 20.0694 56.8033 19.9141 57.0006 19.6751C57.1115 19.7275 57.2004 19.7672 57.2673 19.7941C57.3582 19.7997 57.4606 19.8059 57.5743 19.8129C57.9141 19.8565 58.258 19.8319 58.6061 19.739C58.9556 19.6234 59.2952 19.4844 59.6247 19.3219C60.0782 19.3725 60.5231 19.3769 60.9594 19.335C61.4198 19.2719 61.8689 19.208 62.3066 19.1435C62.7671 19.0803 63.2154 19.0279 63.6517 18.9861C64.1122 18.9229 64.5692 18.9166 65.0226 18.9672C65.7718 19.0358 66.5152 19.0128 67.2527 18.8981C67.9902 18.7834 68.7329 18.7718 69.4807 18.8632C70.0024 18.9179 70.5113 18.9947 71.0075 19.0935C71.5279 19.171 72.0503 19.2144 72.5748 19.2236C72.8621 19.3782 73.116 19.5193 73.3365 19.6469C73.5811 19.7532 73.8868 19.7947 74.2535 19.7715C74.9437 20.4301 75.5595 21.1868 76.1007 22.0418L76.0653 22.6218C76.0105 23.1435 75.8882 23.6497 75.6984 24.1403C75.5086 24.6309 75.2847 25.1195 75.0266 25.6059C74.7927 26.071 74.5361 26.5347 74.2567 26.9971C73.9787 27.4366 73.7121 27.8769 73.4568 28.3179C71.8964 29.5694 70.3366 30.8095 68.7776 32.0382C67.2185 33.2669 65.6168 34.4474 63.9723 35.5796C63.9129 35.8042 63.8322 36.0047 63.7301 36.1811C63.6507 36.3589 63.5934 36.5494 63.5582 36.7528C63.5512 36.8665 63.557 36.9581 63.5756 37.0278C63.732 37.083 63.8629 37.1823 63.9683 37.3257C64.0978 37.4478 64.1335 37.6098 64.0755 37.8117L64.3826 37.8305C64.4963 37.8374 64.5504 37.8864 64.5448 37.9774L65.0886 38.0449C65.9501 38.1432 66.8157 38.1733 67.6856 38.1352C68.5554 38.0971 69.4259 38.0476 70.2971 37.9868C71.1911 37.9273 72.073 37.8785 72.9429 37.8404C73.8141 37.7795 74.6825 37.7642 75.5482 37.7943C75.7571 37.7386 75.9766 37.6949 76.2068 37.6634C76.437 37.6318 76.6473 37.5533 76.8376 37.428L76.9399 37.4342C77.0992 37.444 77.2101 37.4964 77.2728 37.5916C77.3582 37.6881 77.4798 37.7526 77.6376 37.7851C77.7513 37.7921 77.8664 37.7763 77.9829 37.7377C78.1222 37.7006 78.2607 37.6748 78.3986 37.6604C78.7226 37.5889 79.0558 37.5522 79.3984 37.5504C79.7637 37.5499 80.1183 37.5373 80.4622 37.5127C81.7883 37.4797 83.1003 37.4914 84.3981 37.548C85.6973 37.5818 87.0041 37.4905 88.3186 37.2741C88.4226 37.4403 88.5748 37.5637 88.7754 37.6445C88.9773 37.7025 89.1899 37.7726 89.4131 37.8547C89.6378 37.9141 89.839 37.9835 90.0168 38.0628C90.2173 38.1436 90.3454 38.2884 90.4011 38.4973ZM119.761 37.7247C119.646 38.1058 119.446 38.4017 119.159 38.6125C118.896 38.8019 118.591 38.943 118.242 39.0358C117.894 39.1287 117.526 39.186 117.136 39.2079C116.769 39.2311 116.438 39.2451 116.141 39.2497C115.812 39.3894 115.517 39.554 115.254 39.7434C114.993 39.91 114.72 40.076 114.436 40.2413C112.419 40.369 110.422 40.5551 108.444 40.7993C106.465 41.0436 104.468 41.2296 102.451 41.3574C102.167 41.5226 101.807 41.6262 101.371 41.668C100.936 41.687 100.478 41.7047 99.9976 41.721C99.5414 41.7159 99.083 41.7449 98.6226 41.8081C98.1635 41.8485 97.7571 41.9606 97.4035 42.1444C95.9209 42.1223 94.4728 42.2848 93.0589 42.6321C92.8129 42.5485 92.5549 42.4757 92.2847 42.4135C92.0373 42.3527 91.7885 42.3147 91.5383 42.2994C91.3564 42.2882 91.1503 42.2985 90.9201 42.33C90.6912 42.3389 90.503 42.4301 90.3554 42.6037C89.836 42.1382 89.1975 41.9393 88.44 42.0071C87.8426 41.6967 87.3177 41.3221 86.8651 40.8835C86.4352 40.4463 86.1147 39.9016 85.9035 39.2495C85.9485 38.887 85.9652 38.614 85.9535 38.4307C85.9433 38.2246 85.7973 37.9988 85.5156 37.7533C85.5253 37.5941 85.5784 37.4718 85.675 37.3864C85.7943 37.3023 85.8702 37.1814 85.9026 37.0236C85.8214 36.8588 85.7877 36.6627 85.8016 36.4353C85.8253 36.0486 85.9172 35.6662 86.0773 35.2879C86.2388 34.8868 86.2859 34.4902 86.2185 34.098C86.569 33.5943 86.9628 33.1276 87.4 32.6978C87.8386 32.2452 88.2758 31.8153 88.7116 31.4082C89.1716 30.9798 89.6202 30.5507 90.0574 30.1208C90.5173 29.6924 90.9446 29.2391 91.3391 28.761C91.7796 28.6509 92.1787 28.4699 92.5366 28.2178C92.9186 27.9444 93.2785 27.6582 93.6164 27.3593C93.977 27.0618 94.337 26.7756 94.6962 26.5008C95.0554 26.226 95.4681 26.0115 95.9341 25.8574C95.9879 25.7237 96.0631 25.6141 96.1596 25.5287C96.2803 25.422 96.4003 25.3266 96.5196 25.2426C96.6389 25.1585 96.7475 25.0624 96.8454 24.9543C96.9661 24.8475 97.054 24.7159 97.1093 24.5595L96.8022 24.5407C95.7787 24.4781 94.7511 24.4838 93.7193 24.5576C92.6888 24.6087 91.6563 24.694 90.6217 24.8133C89.6112 24.9113 88.6001 25.0207 87.5882 25.1415C86.5763 25.2622 85.5552 25.3481 84.5248 25.3992C84.1256 25.5803 83.6937 25.7365 83.2291 25.8679C82.7645 25.9993 82.2998 26.1307 81.8352 26.2621C81.3934 26.3948 80.9615 26.5511 80.5396 26.7307C80.0949 26.909 79.7043 27.1362 79.3678 27.4124C79.2982 27.431 79.1952 27.4361 79.0587 27.4277C78.8085 27.4124 78.5952 27.3537 78.4188 27.2516C78.2438 27.1268 78.044 27.0347 77.8194 26.9753C77.7961 26.6086 77.7488 26.2632 77.6773 25.9393C77.5844 25.5911 77.5491 25.2351 77.5714 24.8712C77.5894 24.5756 77.6502 24.3282 77.7537 24.129C78.0721 24.1485 78.3058 24.0601 78.4548 23.8637C78.5811 23.666 78.7741 23.4952 79.0341 23.3512C79.0981 23.4237 79.1643 23.4619 79.2325 23.4661C79.3462 23.4731 79.4514 23.4338 79.5479 23.3484C79.6444 23.263 79.7637 23.179 79.9057 23.0964C80.0478 23.0137 80.2119 22.9439 80.398 22.8868C80.5841 22.8297 80.8243 22.8215 81.1186 22.8624C81.8232 22.5402 82.4739 22.3517 83.0708 22.2969C83.6905 22.2435 84.3677 22.1822 85.1024 22.113C85.2872 22.0786 85.4157 22.0294 85.4881 21.9653C85.5605 21.9013 85.6464 21.8038 85.7457 21.6729L86.4601 21.7508C87.4353 21.8561 88.4168 21.8591 89.4045 21.7597C90.3936 21.6376 91.372 21.5034 92.3398 21.3571C93.3303 21.2122 94.3187 21.1014 95.3051 21.0248C96.3155 20.9268 97.3184 20.9539 98.3135 21.1061C98.5707 21.0077 98.825 20.9547 99.0766 20.9473C99.3509 20.9412 99.6246 20.9466 99.8975 20.9632C100.261 20.9855 100.657 21.044 101.085 21.1386C101.513 21.2333 101.904 21.3827 102.256 21.5869C102.632 21.7925 102.924 22.0615 103.132 22.3938C103.364 22.7048 103.466 23.0877 103.438 23.5426C103.423 23.7928 103.352 24.0167 103.226 24.2145C103.099 24.4122 102.951 24.5972 102.781 24.7694C102.611 24.9416 102.429 25.1132 102.236 25.284C102.044 25.4321 101.864 25.5808 101.695 25.7303C101.428 25.9879 101.171 26.269 100.924 26.5735C100.701 26.8566 100.434 27.1143 100.123 27.3464C99.9656 27.3139 99.8385 27.3404 99.7419 27.4258C99.6681 27.5126 99.5516 27.5511 99.3924 27.5414C99.0884 27.6597 98.9025 27.8995 98.8348 28.2606C98.2054 28.4732 97.596 28.7327 97.0065 29.0391C96.417 29.3455 95.9223 29.7832 95.5222 30.3523C95.0265 30.6188 94.5507 30.9321 94.0949 31.2923C93.6633 31.6312 93.2416 31.9935 92.8299 32.3792C92.4183 32.765 92.0059 33.1621 91.5928 33.5706C91.2039 33.9577 90.7929 34.3321 90.3598 34.6937C90.2935 35.0321 90.1944 35.3456 90.0626 35.6343C89.9308 35.9231 89.7869 36.2225 89.631 36.5325C89.6157 36.7827 89.6821 37.0036 89.8301 37.1953C89.9782 37.387 90.0432 37.6307 90.0251 37.9264C90.5868 38.0749 91.1384 38.1999 91.6801 38.3015C92.2459 38.3818 92.8245 38.44 93.4159 38.4762C93.9845 38.511 94.5551 38.5116 95.1279 38.4782C95.7021 38.422 96.247 38.2841 96.7627 38.0645C97.0983 38.1764 97.448 38.2434 97.8119 38.2657C98.3123 38.2963 98.7927 38.28 99.2531 38.2168C99.7377 38.1323 100.218 38.1161 100.694 38.168C101.275 37.9981 101.864 37.8971 102.459 37.865C103.079 37.8116 103.686 37.7802 104.28 37.7709C104.875 37.7389 105.472 37.6954 106.069 37.6406C106.688 37.5872 107.29 37.4528 107.874 37.2374C108.188 37.3251 108.483 37.3546 108.759 37.3258C109.035 37.297 109.332 37.2923 109.65 37.3118C109.877 37.3257 110.146 37.4106 110.456 37.5666C110.831 37.4069 111.216 37.2706 111.611 37.1578C112.029 37.0464 112.443 37.0032 112.852 37.0282C113.011 37.0379 113.17 37.0591 113.328 37.0915C113.485 37.124 113.63 37.1785 113.763 37.2551C113.81 37.2352 113.926 37.1966 114.112 37.1395C114.298 37.0824 114.496 37.026 114.705 36.9703C114.914 36.9146 115.11 36.8696 115.295 36.8352C115.481 36.7781 115.597 36.7509 115.643 36.7537C115.825 36.7648 115.901 36.8266 115.871 36.9389C115.865 37.0299 115.919 37.0788 116.033 37.0858C116.42 37.1094 116.799 37.0642 117.172 36.95C117.545 36.813 117.925 36.7564 118.312 36.78C118.471 36.7897 118.618 36.8102 118.753 36.8413C118.888 36.8723 119.046 36.9162 119.225 36.9728C119.307 37.1148 119.378 37.2675 119.436 37.4309C119.496 37.5716 119.604 37.6695 119.761 37.7247Z" fill="#081B26"/>
</svg>
